<mxfile host="app.diagrams.net" modified="2024-01-23T15:24:52.397Z" agent="Mozilla/5.0 (Windows NT 10.0; Win64; x64) AppleWebKit/537.36 (KHTML, like Gecko) Chrome/120.0.0.0 Safari/537.36" version="22.1.21" etag="UtodwG4mWKI5VtggIYLX" type="github">
  <diagram name="PÃ¡gina-1" id="UIix2WDDRqQWM_wK0eBu">
    <mxGraphModel>
      <root>
        <mxCell id="0" />
        <mxCell id="1" parent="0" />
      </root>
    </mxGraphModel>
  </diagram>
</mxfile>
